<svg width="85" height="26" viewBox="0 0 85 26" fill="none" xmlns="http://www.w3.org/2000/svg">
<g id="Layer_1" clip-path="url(#clip0_689_928)">
<path id="Vector" d="M18.7789 8.10558C18.1596 6.92411 17.2976 6.03188 16.1927 5.42889C15.0879 4.8259 13.8147 4.52685 12.368 4.52685C10.7826 4.52685 9.37065 4.87982 8.12712 5.58576C6.88854 6.2917 5.9175 7.29179 5.21398 8.58601C4.51047 9.88024 4.16367 11.3804 4.16367 13.0864C4.16367 14.7924 4.51543 16.2974 5.21398 17.6064C5.91254 18.9153 6.88359 19.9203 8.12712 20.6262C9.3657 21.3322 10.7826 21.6851 12.368 21.6851C14.5033 21.6851 16.2373 21.0919 17.57 19.9105C18.9027 18.729 19.7202 17.1259 20.0175 15.1013H11.0204V11.9981H24.2187V15.0326C23.9661 16.8759 23.3071 18.5672 22.237 20.1115C21.1669 21.6557 19.7797 22.8911 18.0655 23.8128C16.3513 24.7344 14.4538 25.1952 12.3631 25.1952C10.1138 25.1952 8.05776 24.6805 6.19494 23.6412C4.33212 22.6068 2.85573 21.1704 1.76578 19.3271C0.675834 17.4838 0.130859 15.4052 0.130859 13.0864C0.130859 10.7676 0.675834 8.68896 1.76578 6.84567C2.85573 5.00238 4.33707 3.56599 6.2098 2.53159C8.08253 1.49719 10.1336 0.977539 12.3631 0.977539C14.9145 0.977539 17.1836 1.59524 19.1703 2.83554C21.157 4.07583 22.5987 5.83088 23.4954 8.10558H18.7739H18.7789Z" fill="#F7C04A"/>
<path id="Vector_2" d="M31.462 24.0818C30.0154 23.2729 28.8759 22.1405 28.0485 20.6698C27.2211 19.204 26.8099 17.5029 26.8099 15.5713C26.8099 13.6398 27.236 11.9681 28.0832 10.4925C28.9304 9.01687 30.0946 7.87952 31.5661 7.08044C33.0375 6.28625 34.6774 5.88916 36.4956 5.88916C38.3139 5.88916 39.9537 6.28625 41.4252 7.08044C42.8966 7.87462 44.0559 9.01197 44.908 10.4925C45.7602 11.9681 46.1813 13.6643 46.1813 15.5713C46.1813 17.4784 45.7453 19.1746 44.8734 20.6551C44.0014 22.1307 42.8124 23.2729 41.3063 24.0818C39.8001 24.8907 38.1405 25.2927 36.3272 25.2927C34.5139 25.2927 32.9137 24.8907 31.467 24.0818H31.462ZM39.166 21.2042C40.0479 20.7286 40.7662 20.0129 41.3211 19.0569C41.871 18.101 42.1485 16.944 42.1485 15.5762C42.1485 14.2085 41.8859 13.0564 41.3558 12.1152C40.8257 11.1739 40.1271 10.4631 39.2552 9.98264C38.3832 9.50711 37.4419 9.26689 36.4312 9.26689C35.4205 9.26689 34.4842 9.50711 33.6221 9.98264C32.7601 10.4582 32.0764 11.169 31.571 12.1152C31.0657 13.0564 30.813 14.2134 30.813 15.5762C30.813 17.6009 31.3332 19.1648 32.3835 20.2629C33.4289 21.3659 34.7418 21.915 36.3272 21.915C37.3379 21.915 38.2841 21.6748 39.1709 21.1992L39.166 21.2042Z" fill="#F7C04A"/>
<path id="Vector_3" d="M53.6226 24.3761C52.2205 23.8074 51.1008 22.9642 50.2635 21.8514C49.4263 20.7386 48.9804 19.3953 48.9358 17.8266H55.208C55.3021 18.7139 55.6093 19.3904 56.1394 19.8561C56.6695 20.3219 57.3581 20.5572 58.2053 20.5572C59.0525 20.5572 59.7659 20.3562 60.2713 19.9591C60.7766 19.562 61.0293 19.008 61.0293 18.307C61.0293 17.7138 60.8261 17.2285 60.4248 16.8412C60.0235 16.4539 59.5281 16.1352 58.9435 15.8852C58.3589 15.6352 57.5266 15.3509 56.4465 15.0322C54.8859 14.5567 53.6077 14.0763 52.6218 13.6007C51.6359 13.1252 50.7838 12.4193 50.0703 11.4878C49.3569 10.5564 49.0002 9.34057 49.0002 7.84044C49.0002 5.61477 49.8177 3.86953 51.4476 2.60472C53.0776 1.34481 55.203 0.712402 57.8238 0.712402C60.4447 0.712402 62.6345 1.34481 64.2694 2.60472C65.8994 3.86462 66.7713 5.62457 66.8902 7.87476H60.514C60.4694 7.10019 60.1821 6.49229 59.652 6.05108C59.1219 5.60987 58.4481 5.38436 57.6207 5.38436C56.9073 5.38436 56.3326 5.57065 55.8966 5.94813C55.4606 6.32071 55.2426 6.86487 55.2426 7.56591C55.2426 8.34048 55.6093 8.94348 56.3474 9.37488C57.0807 9.80629 58.2301 10.272 59.7956 10.7721C61.3563 11.2966 62.6246 11.7967 63.6055 12.2722C64.5815 12.7477 65.4237 13.4438 66.1372 14.3508C66.8506 15.2626 67.2073 16.4294 67.2073 17.8658C67.2073 19.3022 66.8555 20.4689 66.157 21.5818C65.4535 22.6946 64.4378 23.5819 63.1051 24.2438C61.7724 24.9056 60.1969 25.234 58.3837 25.234C56.5704 25.234 55.0296 24.9497 53.6275 24.381L53.6226 24.3761Z" fill="#F7C04A"/>
<path id="Vector_4" d="M76.7097 20.4838H84.4285V24.9841H70.8141V1.05078H76.7048V20.4887L76.7097 20.4838Z" fill="#F7C04A"/>
</g>
<defs>
<clipPath id="clip0_689_928">
<rect width="84.2927" height="24.5854" fill="white" transform="translate(0.135864 0.70752)"/>
</clipPath>
</defs>
</svg>
